<svg id="ecaeiK6Vxpv1" xmlns="http://www.w3.org/2000/svg" xmlns:xlink="http://www.w3.org/1999/xlink" viewBox="0 0 564.8103 449.94076" shape-rendering="geometricPrecision" text-rendering="geometricPrecision"><style><![CDATA[#ecaeiK6Vxpv2_to {animation: ecaeiK6Vxpv2_to__to 2000ms linear 1 normal forwards}@keyframes ecaeiK6Vxpv2_to__to { 0% {transform: translate(647.046552px,231.970006px)} 50% {transform: translate(647.046552px,231.970006px)} 75% {transform: translate(536.898798px,224.26499px)} 100% {transform: translate(472.914722px,224.26499px)}} #ecaeiK6Vxpv18 {animation: ecaeiK6Vxpv18_c_o 2000ms linear 1 normal forwards}@keyframes ecaeiK6Vxpv18_c_o { 0% {opacity: 0} 25% {opacity: 0.5} 50% {opacity: 1} 100% {opacity: 1}} #ecaeiK6Vxpv19 {animation: ecaeiK6Vxpv19_c_o 2000ms linear 1 normal forwards}@keyframes ecaeiK6Vxpv19_c_o { 0% {opacity: 0} 0.5% {opacity: 0} 25% {opacity: 0.5} 50% {opacity: 1} 100% {opacity: 1}} #ecaeiK6Vxpv20 {animation: ecaeiK6Vxpv20_c_o 2000ms linear 1 normal forwards}@keyframes ecaeiK6Vxpv20_c_o { 0% {opacity: 0} 0.5% {opacity: 0} 25% {opacity: 0.5} 50% {opacity: 1} 100% {opacity: 1}} #ecaeiK6Vxpv21 {animation: ecaeiK6Vxpv21_c_o 2000ms linear 1 normal forwards}@keyframes ecaeiK6Vxpv21_c_o { 0% {opacity: 0} 0.5% {opacity: 0} 25% {opacity: 0.5} 50% {opacity: 1} 100% {opacity: 1}} #ecaeiK6Vxpv22 {animation: ecaeiK6Vxpv22_c_o 2000ms linear 1 normal forwards}@keyframes ecaeiK6Vxpv22_c_o { 0% {opacity: 0} 0.5% {opacity: 0} 25% {opacity: 0.5} 50% {opacity: 1} 100% {opacity: 1}} #ecaeiK6Vxpv26 {animation: ecaeiK6Vxpv26_c_o 2000ms linear 1 normal forwards}@keyframes ecaeiK6Vxpv26_c_o { 0% {opacity: 0} 25% {opacity: 0.5} 50% {opacity: 1} 100% {opacity: 1}} #ecaeiK6Vxpv27 {animation: ecaeiK6Vxpv27_c_o 2000ms linear 1 normal forwards}@keyframes ecaeiK6Vxpv27_c_o { 0% {opacity: 0} 25% {opacity: 0.5} 50% {opacity: 1} 100% {opacity: 1}} #ecaeiK6Vxpv28_to {animation: ecaeiK6Vxpv28_to__to 2000ms linear 1 normal forwards}@keyframes ecaeiK6Vxpv28_to__to { 0% {transform: translate(620.797858px,190.713477px)} 25% {transform: translate(413.057679px,199.13px)} 50% {transform: translate(340.402589px,205.639467px)} 100% {transform: translate(340.402589px,205.639467px)}} #ecaeiK6Vxpv36_to {animation: ecaeiK6Vxpv36_to__to 2000ms linear 1 normal forwards}@keyframes ecaeiK6Vxpv36_to__to { 0% {transform: translate(-39.92244px,370.160688px)} 25% {transform: translate(49.437839px,370.970376px)} 50% {transform: translate(94.164346px,370.160688px)} 100% {transform: translate(94.164346px,370.160688px)}} #ecaeiK6Vxpv44_to {animation: ecaeiK6Vxpv44_to__to 2000ms linear 1 normal forwards}@keyframes ecaeiK6Vxpv44_to__to { 0% {transform: translate(-46.094833px,189.204837px)} 25% {transform: translate(35.293038px,189.906848px)} 50% {transform: translate(119.941989px,189.204837px)} 100% {transform: translate(119.941989px,189.204837px)}} #ecaeiK6Vxpv52 {animation: ecaeiK6Vxpv52_c_o 2000ms linear 1 normal forwards}@keyframes ecaeiK6Vxpv52_c_o { 0% {opacity: 0} 25% {opacity: 0.5} 50% {opacity: 1} 100% {opacity: 1}} #ecaeiK6Vxpv53 {animation: ecaeiK6Vxpv53_c_o 2000ms linear 1 normal forwards}@keyframes ecaeiK6Vxpv53_c_o { 0% {opacity: 0} 25% {opacity: 0.5} 50% {opacity: 1} 100% {opacity: 1}} #ecaeiK6Vxpv54 {animation: ecaeiK6Vxpv54_c_o 2000ms linear 1 normal forwards}@keyframes ecaeiK6Vxpv54_c_o { 0% {opacity: 0} 25% {opacity: 0.5} 50% {opacity: 1} 100% {opacity: 1}} #ecaeiK6Vxpv56 {animation: ecaeiK6Vxpv56_c_o 2000ms linear 1 normal forwards}@keyframes ecaeiK6Vxpv56_c_o { 0% {opacity: 0} 0.5% {opacity: 0} 25% {opacity: 0.5} 50% {opacity: 1} 100% {opacity: 1}} #ecaeiK6Vxpv57 {animation: ecaeiK6Vxpv57_c_o 2000ms linear 1 normal forwards}@keyframes ecaeiK6Vxpv57_c_o { 0% {opacity: 0} 0.5% {opacity: 0} 25% {opacity: 0.5} 50% {opacity: 1} 100% {opacity: 1}} #ecaeiK6Vxpv58 {animation: ecaeiK6Vxpv58_c_o 2000ms linear 1 normal forwards}@keyframes ecaeiK6Vxpv58_c_o { 0% {opacity: 0} 0.5% {opacity: 0} 25% {opacity: 0.5} 50% {opacity: 1} 100% {opacity: 1}} #ecaeiK6Vxpv60 {animation: ecaeiK6Vxpv60_c_o 2000ms linear 1 normal forwards}@keyframes ecaeiK6Vxpv60_c_o { 0% {opacity: 0} 0.5% {opacity: 0} 25% {opacity: 0.5} 50% {opacity: 1} 100% {opacity: 1}} #ecaeiK6Vxpv61 {animation: ecaeiK6Vxpv61_c_o 2000ms linear 1 normal forwards}@keyframes ecaeiK6Vxpv61_c_o { 0% {opacity: 0} 0.5% {opacity: 0} 25% {opacity: 0.5} 50% {opacity: 1} 100% {opacity: 1}} #ecaeiK6Vxpv62 {animation: ecaeiK6Vxpv62_c_o 2000ms linear 1 normal forwards}@keyframes ecaeiK6Vxpv62_c_o { 0% {opacity: 0} 0.5% {opacity: 0} 25% {opacity: 0.5} 50% {opacity: 1} 100% {opacity: 1}} #ecaeiK6Vxpv64 {animation: ecaeiK6Vxpv64_c_o 2000ms linear 1 normal forwards}@keyframes ecaeiK6Vxpv64_c_o { 0% {opacity: 0} 0.5% {opacity: 0} 25% {opacity: 0.5} 50% {opacity: 1} 100% {opacity: 1}} #ecaeiK6Vxpv65 {animation: ecaeiK6Vxpv65_c_o 2000ms linear 1 normal forwards}@keyframes ecaeiK6Vxpv65_c_o { 0% {opacity: 0} 0.5% {opacity: 0} 25% {opacity: 0.5} 50% {opacity: 1} 100% {opacity: 1}} #ecaeiK6Vxpv66 {animation: ecaeiK6Vxpv66_c_o 2000ms linear 1 normal forwards}@keyframes ecaeiK6Vxpv66_c_o { 0% {opacity: 0} 0.5% {opacity: 0} 25% {opacity: 0.5} 50% {opacity: 1} 100% {opacity: 1}} #ecaeiK6Vxpv69 {animation: ecaeiK6Vxpv69_c_o 2000ms linear 1 normal forwards}@keyframes ecaeiK6Vxpv69_c_o { 0% {opacity: 0} 0.5% {opacity: 0} 25% {opacity: 0.5} 50% {opacity: 1} 100% {opacity: 1}} #ecaeiK6Vxpv70 {animation: ecaeiK6Vxpv70_c_o 2000ms linear 1 normal forwards}@keyframes ecaeiK6Vxpv70_c_o { 0% {opacity: 0} 0.5% {opacity: 0} 25% {opacity: 0.5} 50% {opacity: 1} 100% {opacity: 1}} #ecaeiK6Vxpv71 {animation: ecaeiK6Vxpv71_c_o 2000ms linear 1 normal forwards}@keyframes ecaeiK6Vxpv71_c_o { 0% {opacity: 0} 0.5% {opacity: 0} 25% {opacity: 0.5} 50% {opacity: 1} 100% {opacity: 1}} #ecaeiK6Vxpv72 {animation: ecaeiK6Vxpv72_c_o 2000ms linear 1 normal forwards}@keyframes ecaeiK6Vxpv72_c_o { 0% {opacity: 0} 0.5% {opacity: 0} 25% {opacity: 0.5} 50% {opacity: 1} 100% {opacity: 1}} #ecaeiK6Vxpv73 {animation: ecaeiK6Vxpv73_c_o 2000ms linear 1 normal forwards}@keyframes ecaeiK6Vxpv73_c_o { 0% {opacity: 0} 0.5% {opacity: 0} 25% {opacity: 0.5} 50% {opacity: 1} 100% {opacity: 1}} #ecaeiK6Vxpv74 {animation: ecaeiK6Vxpv74_c_o 2000ms linear 1 normal forwards}@keyframes ecaeiK6Vxpv74_c_o { 0% {opacity: 0} 0.5% {opacity: 0} 25% {opacity: 0.5} 50% {opacity: 1} 100% {opacity: 1}}]]></style><g id="ecaeiK6Vxpv2_to" transform="translate(647.046552,231.970006)"><g transform="translate(-452.98555,-224.432274)"><g><polygon points="496.1376,436.61569 484.39597,436.61456 478.81042,391.32495 496.13998,391.32614 496.1376,436.61569" fill="#ffb6b6"/><path d="M496.5509,448.86453l-36.10718-.00137v-.45657c.00052-7.76151,6.29242-14.05328,14.05392-14.05371h.00089l6.59543-5.0036l12.3056,5.00439l3.15192.00006-.00058,14.5108Z" fill="#2f2e41"/></g><g><polygon points="444.08279,436.61569 432.34119,436.61456 426.75562,391.32495 444.08521,391.32614 444.08279,436.61569" fill="#ffb6b6"/><path d="M444.49609,448.86453l-36.10718-.00137v-.45657c.00052-7.76151,6.29242-14.05328,14.05392-14.05371h.00089l6.59543-5.0036l12.3056,5.00439l3.15192.00006-.00058,14.5108Z" fill="#2f2e41"/></g><path d="M438.48767,183.86459l67.74255,1.42616c0,0,12.17853,19.96622,2.8804,48.13286l1.04156,7.84387-4.27847,12.12234-2.13925,37.08014l2.13925,5.70462-1.42615,10.6962c0,0,5.70462,70.59485-8.55695,106.24881l-17.11389-.71307-6.41772-93.02316l3.5654-6.80795-.71307-2.85233-8.55695-42.78476-8.55695,22.10547v12.28238l-7.84387,9.11002c0,0,2.85233,84.14334-4.99155,101.25726h-19.16049l-7.22345-114.09268l7.1308-66.31638-1.42615-4.27847l2.13925-2.13924-1.42615-7.13078l13.19196-33.87128-.00012-.00003Z" fill="#2f2e41"/><path d="M467.36737,53.72761l20.67929-4.99156l5.70462,13.54851c0,0,29.51471,15.68775,30.94092,37.08013c0,0,4,17.1139.43457,24.95778s-18.54007,32.80164-18.54007,32.80164s13.54849,43.49783,9.98312,45.63708-88.42184-2.13924-88.42184-6.41771s14.12234-49.20247,14.12234-49.20247l2.99155-77.01257l19.25314-7.13079l2.85233-9.27003.00003-.00002Z" fill="#3f3d56"/><path d="M522.49719,229.26281c-4.32812-2.18115-6.06903-7.45773-3.88818-11.78589.21954-.43568.47803-.83762.75598-1.21933l-11.50684-78.89287l15.93066.50961l8.33337,76.86882c3.02032,2.56178,4.02191,6.93852,2.16089,10.63158-2.18085,4.32817-7.45752,6.06889-11.78595,3.88808h.00006Z" fill="#ffb6b6"/><path d="M371.33841,192.02793c-1.74237-4.52263.51102-9.60155,5.03342-11.34416.45523-.17542.91669-.29967,1.379-.39581l44.45221-66.18528l11.46213,11.07548-45.44449,62.55444c.5177,3.92645-1.67923,7.84212-5.53818,9.32889-4.52243,1.74261-9.60132-.511-11.34409-5.03355Z" fill="#ffb6b6"/><path d="M493.46826,117.46573c-4.50104-15.46355,2.97473-31.24023,19.07983-31.16403c4.65497.02203,8.27142,1.3728,9.27374,5.11178c3.50812,13.08646,5.42102,32.8406,5.42102,32.8406l4.16156,21.0321-2.52063,4.36699l5.25488,14.09471-2.54901,6.66808-.55109,34.05193-12.83545-.71307-14.14221-25.95921-5.40778-3.21553c0,0,4.34204-41.972-4.29492-54.05681l-.88998-3.05752h.00003Z" fill="#3f3d56"/><path d="M435.97525,79.40956c7.50537-14.24957,26.72006-17.6249,38.25119-6.38149c3.33292,3.24976,4.99576,6.73378,3.11914,10.11948-6.56818,11.84994-21.793,24.60873-21.793,24.60873l-18.74896,30.1414-4.84686,1.38994-6.01218,13.7887-12.88364,15.14767-17.06436,8.99919-9.98312-9.98311l2.11987-12.83292l25.69025-34.23032c0,0,18.4845-23.25715,20.66769-37.94979l1.48398-2.81748v-.00002Z" fill="#3f3d56"/><path d="M471.29678,49.55995c.47229.05676.94308.09937,1.41153.12074c1.45734.07992,2.89713-.00317,4.28467-.23844c4.21613-.67573,8.04633-2.67263,11.0018-5.60105c3.12457-3.09,5.26291-7.2143,5.84094-11.90953c1.35419-11.08279-6.53763-21.17844-17.62042-22.53263-10.92374-1.34261-20.8815,6.29773-22.47101,17.12611-.02499.16763-.05075.3282-.0687.49507-1.35342,11.08988,6.53058,21.1792,17.62119,22.53972v.00002Z" fill="#ffb6b6"/><path d="M449.18701,25.78329c2.87085,1.41972,7.5618-3.04364,9.3584-.47564.29178-.55496.61414-1.09167.93253-1.59923.28821-.45416.70035-1.42364,1.17737-1.58967-.60361,1.45626-.47043,3.42853.15594,5.1183c2.83197,1.05813,6.53894-1.28412,9.16-4.05461c4.11569-4.34412,10.83603,6.7955,9.24701,12.56046c2.02228-2.46946,6.41068-1.07667,7.89767,1.74692c1.48627,2.81653-1.02509,5.07323-1.56219,8.2149l4.05411-.51486c2.55783-2.49121,2.37894-6.68905,4.48535-9.57637c3.51816-4.83207,4.88135-9.76236,2.23651-14.74927-2.34604-4.40945-2.56531-10.11622-6.86929-12.6584c1.88055-.91942-4.80698.51694-3.02066-2.47936c1.79419-2.99001-7.76917-3.35292-8.39297-1.75104-2.73279-3.27058-5.48917-5.42694-8.85068-2.80627-3.30151,2.57832-2.95984,5.28843-6.83731,5.04556-1.8194-.11273-1.6196,3.27962-2.70126,4.75862-1.07535,1.4711-5.25543,2.41549-5.45883,2.25806-1.1041-.86381-4.86032,6.48971-4.86032,6.48971s-3.04572,4.6235-.15134,6.06219h-.00003Z" fill="#2f2e41"/></g></g><path d="M196.15526,154.13037c67.93102,0,123.00002,55.06897,123.00002,123s-55.069,123-123.00002,123-161.94494-67.3513-123-123s55.06898-123,123-123Z" fill="#f2f2f2"/><path id="ecaeiK6Vxpv18" d="M360.7818,159.98167c-1.10303,0-2,.89697-2,2v64c0,1.10303.89697,2,2,2s2-.89697,2-2v-64c0-1.10303-.89697-2-2-2Z" opacity="0" fill="#3f3d56"/><path id="ecaeiK6Vxpv19" d="M24.7818,111.98166c-1.10303,0-2,.89697-2,2v15.99999c0,1.10303.89697,2,2,2s2-.89697,2-2v-16c0-1.10303-.89697-2-2-1.99999Z" transform="translate(0 0.105078)" opacity="0" fill="#3f3d56"/><path id="ecaeiK6Vxpv20" d="M24.7818,159.98167c-1.10303,0-2,.89697-2,2v31c0,1.10303.89697,2,2,2s2-.89697,2-2v-31c0-1.10303-.89697-2-2-2Z" transform="translate(0 0.105078)" opacity="0" fill="#3f3d56"/><path id="ecaeiK6Vxpv21" d="M24.7818,203.98167c-1.10303,0-2,.89697-2,2v31c0,1.10303.89697,2,2,2s2-.89697,2-2v-31c0-1.10303-.89697-2-2-2Z" transform="translate(0 0.105078)" opacity="0" fill="#3f3d56"/><path id="ecaeiK6Vxpv22" d="M204.15526,48.98167c-1.10303,0-2,.89697-2,2v31c0,1.10303.89697,2,2,2s2-.89697,2-2v-31c0-1.10303-.89697-2-2-2Z" transform="translate(0 0.105078)" opacity="0" fill="#3f3d56"/><g><path d="M510.55136,432.60781c2.06595.12936,3.20767-2.43738,1.64468-3.93332l-.15552-.61819c.02045-.0495.04108-.09897.06177-.14838c2.08923-4.98181,9.16992-4.94742,11.24139.04178c1.83856,4.42816,4.17944,8.86389,4.7558,13.54593.25836,2.0668.14215,4.17236-.31647,6.20047c4.30804-9.41058,6.57513-19.68661,6.57513-30.02078c0-2.59653-.14215-5.19302-.43274-7.78296-.23901-2.11853-.56842-4.22409-.99469-6.31033-2.30573-11.27719-7.29852-22.01825-14.50012-30.98962-3.46198-1.89249-6.34906-4.85065-8.09296-8.39651-.6265-1.2789-1.1174-2.65463-1.34991-4.05618.39398.05167,1.48557-5.94867,1.18842-6.3168.54907-.83316,1.53177-1.24734,2.13147-2.06033c2.9823-4.0434,7.09119-3.3374,9.23621,2.15726c4.58221,2.31265,4.62659,6.14807,1.81494,9.83682-1.78876,2.34683-2.03455,5.52234-3.60406,8.03479.1615.2067.32947.40695.49091.61365c2.96106,3.79788,5.52209,7.88,7.68103,12.16858-.61017-4.7662.29065-10.50821,1.82642-14.20959c1.74817-4.21732,5.0249-7.76917,7.91046-11.41501c3.466-4.37924,10.57336-2.46805,11.18402,3.08331.00592.05374.01166.10745.01733.16119-.42859.24179-.84851.49866-1.25867.76993-2.33948,1.54724-1.53094,5.17386,1.24109,5.60175l.06274.00967c-.15503,1.54367-.41986,3.07443-.80731,4.57938c3.70178,14.3158-4.2901,19.52991-15.70148,19.76413-.25189.12915-.49738.25833-.74927.3811c1.15619,3.25525,2.07983,6.59448,2.7644,9.97891.61359,2.99042,1.03992,6.01318,1.27887,9.04889.29718,3.83005.2713,7.6796-.0517,11.50323l.01941-.13562c.82025-4.21115,3.10669-8.14462,6.42657-10.87027c4.94562-4.06265,11.9328-5.55869,17.26825-8.82425c2.56836-1.57196,5.85944.45944,5.41119,3.43707l-.02179.14261c-.79443.32288-1.56946.69754-2.31873,1.11734-.42859.24185-.84845.49866-1.25867.76993-2.33948,1.5473-1.53094,5.17392,1.24109,5.60181l.06281.00964c.04523.00647.08398.01294.12909.01944-1.36279,3.23581-3.26166,6.23923-5.63855,8.82922-2.31464,12.49713-12.25604,13.68283-22.8902,10.04355h-.00647c-1.1626,5.06378-2.86127,10.01126-5.04437,14.7262h-18.0202c-.06464-.20023-.12274-.40692-.18088-.60718c1.66641.10342,3.34573.0065,4.9863-.29703-1.33704-1.64059-2.67395-3.2941-4.01096-4.93463-.03229-.03229-.05817-.06461-.08398-.09689-.67816-.8396-1.36282-1.67282-2.04099-2.51245l-.00037-.00101c-.04245-2.57755.26651-5.14661.87875-7.63983l.00058-.00034-.00009-.00006Z" fill="#f2f2f2"/><path d="M0,448.75076c0,.66003.53003,1.19,1.19006,1.19h562.28998c.65997,0,1.19-.52997,1.19-1.19s-.53003-1.19-1.19-1.19h-562.28998c-.66003,0-1.19006.53003-1.19006,1.19Z" fill="#ccc"/></g><path id="ecaeiK6Vxpv26" d="M142.37598,268.83935h-69.22072v-2h69.2207c6.01318,0,10.90527-4.89258,10.90527-10.90625v-46.80273h2v46.80273c0,7.11621-5.78906,12.90625-12.90527,12.90625h.00002Z" opacity="0" fill="#6c63ff"/><rect id="ecaeiK6Vxpv27" width="157.436" height="2" rx="0" ry="0" transform="translate(117.019 370.294)" opacity="0" fill="#6c63ff"/><g id="ecaeiK6Vxpv28_to" transform="translate(620.797858,190.713477)"><g transform="translate(-332.297089,-205.703064)"><path d="M374.34299,255.466h-84.0918c-4.53809,0-8.22998-3.69189-8.22998-8.22998v-83.06592c0-4.53809,3.69189-8.22998,8.22998-8.22998h84.0918c4.53809,0,8.22998,3.69189,8.22998,8.22998v83.06592c0,4.53809-3.69189,8.22998-8.22998,8.22998Z" fill="#e6e6e6"/><path d="M305.91171,158.39219c-11.84012,0-21.43842,9.5983-21.43842,21.43842v65.64299c0,4.16435,3.37589,7.54022,7.54022,7.54022h51.41989c20.26184,0,36.68732-16.42548,36.68732-36.68733v-50.39409c0-4.16435-3.37589-7.54022-7.54022-7.54022h-66.66879v.00002Z" fill="#fff"/><g><path d="M354.81924,182.53161h-45.22061c-.86273,0-1.5647-.702-1.5647-1.56471s.702-1.56439,1.5647-1.56439h45.22061c.86273,0,1.56439.70166,1.56439,1.56439s-.70166,1.56471-1.56439,1.56471Z" fill="#e6e6e6"/><path d="M354.81924,215.89521h-45.22061c-.86273,0-1.5647-.702-1.5647-1.56471s.702-1.56439,1.5647-1.56439h45.22061c.86273,0,1.56439.70166,1.56439,1.56439s-.70166,1.56471-1.56439,1.56471Z" fill="#e6e6e6"/><path d="M373.1824,199.22434h-81.9469c-.86273,0-1.5647-.702-1.5647-1.56471s.702-1.56439,1.5647-1.56439h81.9469c.86273,0,1.56439.70166,1.56439,1.56439s-.70166,1.56471-1.56439,1.56471Z" fill="#e6e6e6"/></g><path d="M374.01913,229.46084h-29.60361c-.86273,0-1.5647-.702-1.5647-1.56471s.702-1.56439,1.5647-1.56439h29.60361c.86273,0,1.56439.70166,1.56439,1.56439s-.70166,1.56471-1.56439,1.56471Z" fill="#e6e6e6"/></g></g><g id="ecaeiK6Vxpv36_to" transform="translate(-39.92244,370.160688)"><g transform="translate(-164.32402,-381.455215)"><path d="M197.71127,420.97035h-66.77454c-3.60355,0-6.53516-2.93161-6.53516-6.53516v-65.95993c0-3.60355,2.93161-6.53516,6.53516-6.53516h66.77457c3.60355,0,6.53516,2.93161,6.53516,6.53516v65.95993c0,3.60355-2.93161,6.53516-6.53516,6.53516h-.00002Z" fill="#e6e6e6"/><path d="M143.37224,343.88719c-9.40184,0-17.02355,7.6217-17.02355,17.02356v52.12497c0,3.30679,2.68067,5.98746,5.98745,5.98746h40.83086c16.08928,0,29.13222-13.04294,29.13222-29.1322v-40.0163c0-3.30679-2.68066-5.98746-5.98746-5.98746h-52.93953l.00002-.00003Z" fill="#fff"/><g><path d="M182.20811,363.05549h-35.9082c-.68506,0-1.24249-.55743-1.24249-1.24249s.55742-1.24222,1.24249-1.24222h35.9082c.68506,0,1.24223.55716,1.24223,1.24222s-.55717,1.24249-1.24223,1.24249Z" fill="#e6e6e6"/><path d="M182.20811,389.54847h-35.9082c-.68506,0-1.24249-.55743-1.24249-1.24249s.55742-1.24222,1.24249-1.24222h35.9082c.68506,0,1.24223.55716,1.24223,1.24222s-.55717,1.24249-1.24223,1.24249Z" fill="#e6e6e6"/><path d="M196.78969,376.31068h-65.07135c-.68506,0-1.24249-.55743-1.24249-1.24249s.55742-1.24222,1.24249-1.24222h65.07135c.68506,0,1.24223.55716,1.24223,1.24222s-.55717,1.24249-1.24223,1.24249Z" fill="#e6e6e6"/></g><path d="M197.4541,400.32048h-23.50725c-.68506,0-1.24249-.55743-1.24249-1.24249s.55742-1.24222,1.24249-1.24222h23.50725c.68506,0,1.24223.55716,1.24223,1.24222s-.55717,1.24249-1.24223,1.24249Z" fill="#e6e6e6"/></g></g><g id="ecaeiK6Vxpv44_to" transform="translate(-46.094833,189.204837)"><g transform="translate(-126.348663,-179.402519)"><path d="M151.04003,208.62567h-49.3827c-2.66499,0-4.83304-2.16805-4.83304-4.83303v-48.78026c0-2.66498,2.16805-4.83303,4.83303-4.83303h49.38271c2.66498,0,4.83303,2.16805,4.83303,4.83303v48.78026c0,2.66498-2.16805,4.83303-4.83303,4.83303h-.00001Z" fill="#e6e6e6"/><path d="M110.85394,151.6193c-6.95307,0-12.58966,5.63658-12.58966,12.58967v38.5487c0,2.44552,1.98247,4.42799,4.42798,4.42799h30.19621c11.89873,0,21.54455-9.64582,21.54455-21.54454v-29.5938c0-2.44552-1.98247-4.42799-4.42799-4.42799h-39.1511v-.00002Z" fill="#fff"/><g><path d="M139.57477,165.7951h-26.55569c-.50663,0-.91888-.41225-.91888-.91888s.41224-.91867.91888-.91867h26.55569c.50663,0,.91869.41204.91869.91867s-.41206.91888-.91869.91888Z" fill="#e6e6e6"/><path d="M139.57477,185.38782h-26.55569c-.50663,0-.91888-.41225-.91888-.91888s.41224-.91867.91888-.91867h26.55569c.50663,0,.91869.41204.91869.91867s-.41206.91888-.91869.91888Z" fill="#e6e6e6"/><path d="M150.35848,175.59789h-48.12311c-.50663,0-.91888-.41225-.91888-.91888s.41224-.91867.91888-.91867h48.12311c.50663,0,.91869.41204.91869.91867s-.41206.91888-.91869.91888Z" fill="#e6e6e6"/></g><path d="M150.84984,193.35418h-17.38464c-.50663,0-.91888-.41225-.91888-.91888s.41224-.91867.91888-.91867h17.38464c.50663,0,.91869.41204.91869.91867s-.41206.91888-.91869.91888Z" fill="#e6e6e6"/></g></g><circle id="ecaeiK6Vxpv52" r="10" transform="translate(295.155 260.13)" opacity="0" fill="#6c63ff"/><circle id="ecaeiK6Vxpv53" r="10" transform="translate(154.155 209.13)" opacity="0" fill="#6c63ff"/><circle id="ecaeiK6Vxpv54" r="10" transform="translate(202.155 346.13)" opacity="0" fill="#6c63ff"/><g><ellipse id="ecaeiK6Vxpv56" rx="12.4633" ry="12.2007" transform="translate(223.756 66.757178)" opacity="0" fill="#f2f2f2"/><path id="ecaeiK6Vxpv57" d="M323.66919,62.47819h-67.08496c-2.30142,0-4.17392-1.87249-4.17392-4.17392s1.8725-4.17392,4.17392-4.17392h67.08496c2.30142,0,4.17392,1.87249,4.17392,4.17392s-1.8725,4.17392-4.17392,4.17392Z" transform="translate(0 0.105078)" opacity="0" fill="#f2f2f2"/><path id="ecaeiK6Vxpv58" d="M376.02252,76.6053h-119.43829c-2.30142,0-4.17392-1.87249-4.17392-4.17392s1.8725-4.17392,4.17392-4.17392h119.43829c2.30142,0,4.17392,1.87249,4.17392,4.17392s-1.8725,4.17392-4.17392,4.17392Z" transform="translate(0 0.105078)" opacity="0" fill="#f2f2f2"/></g><g><ellipse id="ecaeiK6Vxpv60" rx="8.06605" ry="7.8961" transform="translate(43.3591 122.339078)" opacity="0" fill="#f2f2f2"/><path id="ecaeiK6Vxpv61" d="M108.02125,119.53295h-43.4164c-1.48945,0-2.7013-1.21185-2.7013-2.7013s1.21185-2.7013,2.7013-2.7013h43.4164c1.48945,0,2.7013,1.21185,2.7013,2.7013s-1.21185,2.7013-2.70129,2.7013Z" transform="translate(0 0.105078)" opacity="0" fill="#f2f2f2"/><path id="ecaeiK6Vxpv62" d="M141.90355,128.67582h-77.2987c-1.48945,0-2.7013-1.21185-2.7013-2.7013s1.21185-2.7013,2.7013-2.7013h77.2987c1.48946,0,2.70129,1.21185,2.70129,2.7013s-1.21185,2.7013-2.70129,2.7013Z" transform="translate(0 0.105078)" opacity="0" fill="#f2f2f2"/></g><g><ellipse id="ecaeiK6Vxpv64" rx="8.06604" ry="7.89609" transform="translate(285.359 403.234)" opacity="0" fill="#f2f2f2"/><path id="ecaeiK6Vxpv65" d="M350.02124,400.53295h-43.41641c-1.48944,0-2.70129-1.21185-2.70129-2.70129s1.21185-2.70129,2.70129-2.70129h43.41641c1.48944,0,2.70129,1.21185,2.70129,2.70129s-1.21185,2.70129-2.70129,2.70129Z" opacity="0" fill="#f2f2f2"/><path id="ecaeiK6Vxpv66" d="M383.90356,409.67581h-77.29871c-1.48944,0-2.70129-1.21185-2.70129-2.70129s1.21185-2.70129,2.70129-2.70129h77.29871c1.48944,0,2.70129,1.21185,2.70129,2.70129s-1.21185,2.70129-2.70129,2.70129Z" opacity="0" fill="#f2f2f2"/></g><rect width="2" height="95" rx="0" ry="0" transform="translate(186.405 155.97)" fill="#e6e6e6"/><circle r="6.00001" transform="translate(187.405 250.97)" fill="#e6e6e6"/><circle id="ecaeiK6Vxpv69" r="6" transform="translate(278.405 319.97)" opacity="0" fill="#e6e6e6"/><circle id="ecaeiK6Vxpv70" r="6" transform="translate(116.405 238.075078)" opacity="0" fill="#e6e6e6"/><rect id="ecaeiK6Vxpv71" width="32.8279" height="2.00092" rx="0" ry="0" transform="matrix(.999542-.03026 0.03026 0.999542 81.375049 239.078176)" opacity="0" fill="#e6e6e6"/><polygon id="ecaeiK6Vxpv72" points="327.21616,342.94012 277.4603,342.94012 277.4603,319.97039 279.4603,319.97039 279.4603,340.94012 327.21616,340.94012 327.21616,342.94012" opacity="0" fill="#e6e6e6"/><circle id="ecaeiK6Vxpv73" r="6" transform="translate(113.942 303.591078)" opacity="0" fill="#e6e6e6"/><polygon id="ecaeiK6Vxpv74" points="162.16098,326.45526 112.40511,326.45526 112.40511,303.48553 114.40511,303.48553 114.40511,324.45526 162.16098,324.45526 162.16098,326.45526" opacity="0" fill="#e6e6e6"/><rect width="238.982" height="2" rx="0" ry="0" transform="translate(75.4227 280.655)" fill="#e6e6e6"/></svg>